# xmcd
#
# Track frame offsets: 
#        150
#        14168
#        30683
#        41811
#        57195
#        70237
#        87545
#        99542
#        112861
#        124974
#        138223
#        152473
#        167076
#        182378
#
# Disc length: 2565 seconds
#
# Revision: 0
# Processed by: cddbd v1.5.2PL0 Copyright (c) Steve Scherf et al.
# Submitted via: ExactAudioCopy v0.95b4
#
DISCID=b80a030e
DTITLE=Lapinlahden Linnut - Etiäppäin
DYEAR=2007
DGENRE=Country
TTITLE0=Etiäppäin
TTITLE1=Runo josta ei tullut mitään
TTITLE2=Mun muriseva koirani Iines
TTITLE3=Takkatulen ääressä
TTITLE4=Oikeutta metron siivoojille
TTITLE5=Olen onnistunut
TTITLE6=Kahvihuoneen kunkku
TTITLE7=Varanasi
TTITLE8=Sähkönainen
TTITLE9=Keliakiavalssi
TTITLE10=Vuorikatu 4 B
TTITLE11=Elän analogisesti
TTITLE12=Kakadun laulu
TTITLE13=Lepolandia
EXTD=
EXTT0=
EXTT1=
EXTT2=
EXTT3=
EXTT4=
EXTT5=
EXTT6=
EXTT7=
EXTT8=
EXTT9=
EXTT10=
EXTT11=
EXTT12=
EXTT13=
PLAYORDER=
